<?xml version="1.0" encoding="UTF-8"?>
<svg version="1.1" xmlns="http://www.w3.org/2000/svg" width="370" height="315">
<path d="M0 0 C0.825 0.62519531 1.65 1.25039062 2.5 1.89453125 C26.8853046 20.74110051 42.74068497 48.2472591 47.59423828 78.63012695 C48.32079762 84.66424161 48.33951559 90.67882578 48.3125 96.75 C48.30926727 97.74028702 48.30926727 97.74028702 48.30596924 98.75057983 C48.13528341 131.36686541 35.28800075 160.31281169 12.46191406 183.56103516 C-10.23948704 205.90606823 -40.94225783 217.43358876 -72.5 218.375 C-108.55958067 217.25542699 -139.07587492 202.20672236 -163.6875 176.1875 C-184.49726674 152.36727875 -194.5339012 120.53898111 -192.78515625 89.1640625 C-190.27421654 56.38684953 -175.66585034 26.87153722 -151 5 C-108.16264476 -29.32687977 -44.59242789 -35.4350543 0 0 Z M-32.89453125 32.22265625 C-33.52746094 32.82980469 -34.16039062 33.43695313 -34.8125 34.0625 C-35.864375 35.03509766 -35.864375 35.03509766 -36.9375 36.02734375 C-38.18998602 37.22527072 -39.44053233 38.42523607 -40.6875 39.62890625 C-51.7228232 49.78883122 -67.65425704 52.15445223 -81.90625 54.9921875 C-93.11782174 57.24610803 -103.23175078 59.93704258 -111 69 C-111.54011719 69.55042969 -112.08023438 70.10085937 -112.63671875 70.66796875 C-119.54110732 77.93180488 -125.11799715 87.32574394 -125.1328125 97.5546875 C-125.13410156 98.41707031 -125.13539063 99.27945313 -125.13671875 100.16796875 C-125.13285156 101.06128906 -125.12898438 101.95460938 -125.125 102.875 C-125.12886719 103.76058594 -125.13273437 104.64617187 -125.13671875 105.55859375 C-125.13111302 109.32003665 -125.06368446 112.69459605 -124.29296875 116.390625 C-124 119 -124 119 -125.29296875 121.0546875 C-125.91816406 121.65539062 -126.54335937 122.25609375 -127.1875 122.875 C-135.04473336 131.09222613 -137.20940744 140.22443319 -137.265625 151.42578125 C-137.25659966 154.16392935 -137.25659966 154.16392935 -135 156 C-132.04253508 156.58345476 -132.04253508 156.58345476 -129 156 C-126.33490456 152.47622226 -125.59121111 149.52553748 -125.125 145.1875 C-124.30378696 139.46024696 -122.51084365 135.55605665 -119 131 C-116.05796798 132.30825224 -114.9709824 133.03781081 -112.9375 135.6875 C-105.90897627 144.47852816 -93.67399994 149.45294084 -82.75 150.875 C-65.98941115 151.83001931 -49.26768638 146.65544637 -36.47119141 135.68994141 C-21.60388726 122.29601519 -13.14094066 106.21094888 -12 86 C-11.86423474 69.165108 -14.83273964 44.81741931 -27 32 C-29.61749241 30.73584034 -30.42817205 30.63096464 -32.89453125 32.22265625 Z " fill="#2EA3A9" transform="translate(271,64)"/>
<path d="M0 0 C2.79620866 2.79620866 3.45304063 6.11539948 4.5625 9.8125 C4.78357422 10.52470703 5.00464844 11.23691406 5.23242188 11.97070312 C7.64306025 19.84351306 8.21160783 26.95717776 8.25 35.1875 C8.270625 36.27353516 8.29125 37.35957031 8.3125 38.47851562 C8.387435 54.07436223 2.40285979 66.24723806 -8.29296875 77.48828125 C-20.17465521 88.51270318 -33.61002692 92.55603623 -49.44140625 92.265625 C-59.52248366 91.84359754 -65.83531103 87.90696479 -73.19921875 81.21875 C-75 79 -75 79 -75 75 C-73.8140625 74.6596875 -72.628125 74.319375 -71.40625 73.96875 C-56.51178437 69.56354081 -41.24066698 64.24066698 -30 53 C-29.83333333 50 -29.83333333 50 -30 47 C-31.06933752 45.74576241 -31.06933752 45.74576241 -33.5 45.5 C-37.28565633 46.04080805 -38.05736053 46.62497822 -40.875 49 C-51.77888975 58.00438467 -64.38944176 62.08697847 -78 65 C-79.485 65.495 -79.485 65.495 -81 66 C-83.11081224 63.88918776 -82.28971892 59.46463611 -82.3125 56.5625 C-82.30203871 44.69707336 -79.55540445 37.79687043 -71.2265625 29.12890625 C-61.91066409 20.22159987 -48.99530706 18.76322129 -36.80639648 16.27856445 C-23.11236023 13.46940252 -10.6494327 9.52250861 0 0 Z " fill="#2FA1AF" transform="translate(239,111)"/>
<path d="M0 0 C18.42606286 6.32981656 33.20286312 28.7262267 42 45 C50.30639012 62.5565815 54.39880728 80.35428734 54.3125 99.75 C54.30926727 100.74028702 54.30926727 100.74028702 54.30596924 101.75057983 C54.13528341 134.36686541 41.28800075 163.31281169 18.46191406 186.56103516 C4.76548428 200.04245752 -13.30106427 211.01361714 -32 216 C-32.99 215.67 -33.98 215.34 -35 215 C-33.35 214.67 -31.7 214.34 -30 214 C-30 213.34 -30 212.68 -30 212 C-28.02 211.67 -26.04 211.34 -24 211 C-24.495 206.05 -24.495 206.05 -25 201 C-24.34 201 -23.68 201 -23 201 C-23 202.32 -23 203.64 -23 205 C-22.34 205 -21.68 205 -21 205 C-20.505 204.01 -20.505 204.01 -20 203 C-19.113125 203.185625 -18.22625 203.37125 -17.3125 203.5625 C-13.37522059 204.08251804 -10.5483397 203.77416985 -7 202 C-7.66 201.01 -8.32 200.02 -9 199 C-4.25 196 -4.25 196 -2 196 C-2 196.66 -2 197.32 -2 198 C-1.443125 197.525625 -0.88625 197.05125 -0.3125 196.5625 C2.18346074 194.87604004 4.0446237 194.41046893 7 194 C7 192.35 7 190.7 7 189 C9.63904371 187.58622659 12.07120629 186.62759865 15 186 C15.33 184.35 15.66 182.7 16 181 C16.66 181 17.32 181 18 181 C18.33 180.34 18.66 179.68 19 179 C20.32 179 21.64 179 23 179 C23.33 176.69 23.66 174.38 24 172 C25.65 171.67 27.3 171.34 29 171 C29.66 168.69 30.32 166.38 31 164 C31.66 164 32.32 164 33 164 C32.01 161.525 32.01 161.525 31 159 C31.66 159 32.32 159 33 159 C33 158.01 33 157.02 33 156 C34.98 155.34 36.96 154.68 39 154 C39.07476562 153.27554688 39.14953125 152.55109375 39.2265625 151.8046875 C40.06034641 145.67392348 40.89401762 142.38654738 45.66796875 138.4140625 C47.95321988 135.98807743 47.87230908 133.19227291 48 130 C48.66 130 49.32 130 50 130 C49.34 128.35 48.68 126.7 48 125 C48.66 125 49.32 125 50 125 C50 124.01 50 123.02 50 122 C49.34 122 48.68 122 48 122 C48.75 116.25 48.75 116.25 51 114 C51.27787668 111.57402049 51.27787668 111.57402049 51.1953125 108.7734375 C51.18886719 107.7421875 51.18242187 106.7109375 51.17578125 105.6484375 C51.15902344 104.56820312 51.14226562 103.48796875 51.125 102.375 C51.11597656 101.28703125 51.10695313 100.1990625 51.09765625 99.078125 C51.07403409 96.38519848 51.04109556 93.69270745 51 91 C50.34 91 49.68 91 49 91 C48.20046862 87.71303767 47.90341064 86.28976808 49 83 C48.67 82.071875 48.34 81.14375 48 80.1875 C46.88688382 76.63944218 47.14941817 74.57244368 48 71 C47.34 71 46.68 71 46 71 C46 70.34 46 69.68 46 69 C46.66 68.67 47.32 68.34 48 68 C47.21791649 65.20866129 46.38293093 62.55518097 45 60 C42.42919865 58.86559222 42.42919865 58.86559222 40 59 C40 57.02 40 55.04 40 53 C40.66 53 41.32 53 42 53 C41.525625 52.29875 41.05125 51.5975 40.5625 50.875 C38.91260143 47.83918663 38.39631536 45.40831214 38 42 C37.401875 42.20625 36.80375 42.4125 36.1875 42.625 C34 43 34 43 31 41 C30.8125 37.875 30.8125 37.875 31 35 C29.68 35 28.36 35 27 35 C27 34.34 27 33.68 27 33 C26.34 33 25.68 33 25 33 C24.87625 31.96875 24.7525 30.9375 24.625 29.875 C23.85892529 24.75894481 23.85892529 24.75894481 22 20 C18.47548841 18.53977565 18.47548841 18.53977565 15 18 C15 16 15 14 15 12 C13.865625 11.87625 12.73125 11.7525 11.5625 11.625 C10.386875 11.41875 9.21125 11.2125 8 11 C7.505 10.01 7.505 10.01 7 9 C6.195625 9.165 5.39125 9.33 4.5625 9.5 C2 10 2 10 1 10 C1.33 7.36 1.66 4.72 2 2 C1.34 2 0.68 2 0 2 C0 1.34 0 0.68 0 0 Z " fill="#4782D8" transform="translate(265,61)"/>
<path d="M0 0 C0.495 0.99 0.495 0.99 1 2 C1.99 2.495 1.99 2.495 3 3 C2.34 4.32 1.68 5.64 1 7 C-0.98 7 -2.96 7 -5 7 C-5.33 7.66 -5.66 8.32 -6 9 C-6.495 8.01 -6.495 8.01 -7 7 C-7.598125 7.165 -8.19625 7.33 -8.8125 7.5 C-11 8 -11 8 -14 8 C-13.690625 8.8971875 -13.690625 8.8971875 -13.375 9.8125 C-13 12 -13 12 -15 15 C-15.66 14.67 -16.32 14.34 -17 14 C-17 14.66 -17 15.32 -17 16 C-17.66 15.67 -18.32 15.34 -19 15 C-19.99 15 -20.98 15 -22 15 C-22.66 15.66 -23.32 16.32 -24 17 C-24.66 17 -25.32 17 -26 17 C-27.33783393 17.31478446 -28.67203709 17.64587656 -30 18 C-30.33 20.31 -30.66 22.62 -31 25 C-32.98 25 -34.96 25 -37 25 C-37.28875 26.134375 -37.5775 27.26875 -37.875 28.4375 C-38.24625 29.613125 -38.6175 30.78875 -39 32 C-39.99 32.495 -39.99 32.495 -41 33 C-41 32.34 -41 31.68 -41 31 C-44.53586014 34.17320782 -46.58578031 36.16743695 -47 41 C-48.1446875 41.1546875 -48.1446875 41.1546875 -49.3125 41.3125 C-52.23589031 42.06034403 -53.22714335 42.60664352 -55 45 C-56.02649828 47.5662457 -56.03605187 48.8357637 -55.4375 51.5625 C-55 54 -55 54 -57 57 C-58.32 57 -59.64 57 -61 57 C-61.33 57.99 -61.66 58.98 -62 60 C-62.66 60 -63.32 60 -64 60 C-63.34 60.99 -62.68 61.98 -62 63 C-62.375 65.1875 -62.375 65.1875 -63 67 C-63.66 67 -64.32 67 -65 67 C-64.34 68.65 -63.68 70.3 -63 72 C-66.465 72.495 -66.465 72.495 -70 73 C-70.12375 74.010625 -70.2475 75.02125 -70.375 76.0625 C-71 80 -71 80 -72.125 83.6875 C-73.00634207 87.02400925 -72.83526964 87.86773883 -72 91 C-72.8125 93.6875 -72.8125 93.6875 -74 96 C-74.99 96.495 -74.99 96.495 -76 97 C-77.94778199 117.20268771 -77.94778199 117.20268771 -75 137 C-74.34 137 -73.68 137 -73 137 C-73 138.32 -73 139.64 -73 141 C-72.67 141.99 -72.34 142.98 -72 144 C-71.34 144.33 -70.68 144.66 -70 145 C-70.04125 146.175625 -70.0825 147.35125 -70.125 148.5625 C-70.09563418 152.71042257 -69.63610798 156.13283567 -68 160 C-66.03081154 161.37843192 -64.03335209 162.71810412 -62 164 C-62 165.32 -62 166.64 -62 168 C-62.66 168 -63.32 168 -64 168 C-63.505 168.94875 -63.01 169.8975 -62.5 170.875 C-61 174 -61 174 -61 176 C-60.34 176 -59.68 176 -59 176 C-59 176.66 -59 177.32 -59 178 C-58.34 178 -57.68 178 -57 178 C-56.3503125 179.7015625 -56.3503125 179.7015625 -55.6875 181.4375 C-55.130625 182.613125 -54.57375 183.78875 -54 185 C-53.01 185.33 -52.02 185.66 -51 186 C-51 186.66 -51 187.32 -51 188 C-50.67 187.34 -50.34 186.68 -50 186 C-49.01 186.33 -48.02 186.66 -47 187 C-46 190 -46 190 -47 193 C-45.68 193 -44.36 193 -43 193 C-43 193.99 -43 194.98 -43 196 C-41.68 195.67 -40.36 195.34 -39 195 C-39 195.763125 -39 196.52625 -39 197.3125 C-38.29819851 200.1006883 -38.29819851 200.1006883 -36.15234375 201 C-34.11690505 201.74668651 -32.08737258 202.41515529 -30 203 C-30 204.65 -30 206.3 -30 208 C-29.21625 208.12375 -28.4325 208.2475 -27.625 208.375 C-25 209 -25 209 -23 211 C-22.375 213.625 -22.375 213.625 -22 216 C-26.2656631 214.54400798 -29.60426939 212.31126605 -33.125 209.5625 C-33.9754187 208.89879395 -33.9754187 208.89879395 -34.84301758 208.22167969 C-45.4082587 199.81673874 -53.64135221 190.22819745 -61 179 C-61.63808594 178.03449219 -62.27617188 177.06898438 -62.93359375 176.07421875 C-79.36014433 149.623448 -83.53086303 117.32102376 -76.99609375 87.1484375 C-69.23911986 54.19622848 -49.24874841 28.14161279 -20.859375 9.9921875 C-14.17200742 5.94825579 -7.28854243 2.80427962 0 0 Z M-40 200 C-39 202 -39 202 -39 202 Z " fill="#32BA69" transform="translate(158,47)"/>
<path d="M0 0 C0.66 0.66 1.32 1.32 2 2 C1.6390625 2.70640625 1.278125 3.4128125 0.90625 4.140625 C-3.93905555 14.85413394 -4.76019846 26.82697039 -2.27734375 38.35546875 C-2 41 -2 41 -3.29296875 43.0546875 C-3.91816406 43.65539062 -4.54335937 44.25609375 -5.1875 44.875 C-13.08028717 53.12940889 -15.2377936 62.26767111 -15.16796875 73.5234375 C-15.27658674 75.9426258 -15.27658674 75.9426258 -14 77 C-12.00041636 77.04080783 -9.99954746 77.04254356 -8 77 C-6.1230163 73.76143386 -5.65619054 71.01173531 -5.25 67.3125 C-4.31149929 61.04300753 -1.92948919 56.89332616 2 52 C4.94203202 53.30825224 6.0290176 54.03781081 8.0625 56.6875 C15.05852766 65.43788322 27.28123019 70.4869891 38.1875 71.75 C39.445625 71.8325 40.70375 71.915 42 72 C42 72.33 42 72.66 42 73 C40.08574219 72.98259766 40.08574219 72.98259766 38.1328125 72.96484375 C36.46354313 72.95546583 34.79427217 72.94636563 33.125 72.9375 C31.86236328 72.92493164 31.86236328 72.92493164 30.57421875 72.91210938 C29.76855469 72.90888672 28.96289062 72.90566406 28.1328125 72.90234375 C27.38918457 72.89710693 26.64555664 72.89187012 25.87939453 72.88647461 C23.90867432 72.88213364 23.90867432 72.88213364 22 74 C19 72 19 72 18.5625 70 C18.19109501 67.85511599 18.19109501 67.85511599 16.25 66.8125 C12.67450766 65.52134999 10.19292346 64.67994736 6.4375 65.6875 C3.75268574 67.13316921 2.04022524 68.74871697 0 71 C-0.99 71.99 -0.99 71.99 -2 73 C-3.94583445 75.95766836 -5.35288602 78.50558451 -6 82 C-7.6396875 81.443125 -7.6396875 81.443125 -9.3125 80.875 C-10.529375 80.58625 -11.74625 80.2975 -13 80 C-14.485 80.99 -14.485 80.99 -16 82 C-19.1875 81.625 -19.1875 81.625 -22 81 C-22 79.35 -22 77.7 -22 76 C-20.02 75.505 -20.02 75.505 -18 75 C-18 69.39 -18 63.78 -18 58 C-17.34 58.33 -16.68 58.66 -16 59 C-14.49823926 53.09914626 -14.49823926 53.09914626 -14.0625 47.0625 C-14.041875 46.381875 -14.02125 45.70125 -14 45 C-11 43 -11 43 -8 43 C-7.01 42.505 -7.01 42.505 -6 42 C-6.01047363 41.16339844 -6.02094727 40.32679688 -6.03173828 39.46484375 C-6.06606018 36.3263452 -6.09101493 33.18794313 -6.10986328 30.04931641 C-6.12472879 28.03671881 -6.150157 26.02420812 -6.17578125 24.01171875 C-6.20942447 17.3167172 -6.07013149 11.38969719 -4 5 C-4.66 4.67 -5.32 4.34 -6 4 C-5.38125 3.896875 -4.7625 3.79375 -4.125 3.6875 C-1.63473516 3.12474627 -1.63473516 3.12474627 0 0 Z " fill="#2FAD84" transform="translate(150,142)"/>
<path d="M0 0 C1.98 0 3.96 0 6 0 C6.67009976 3.63768441 7.14610928 7.25815997 7.5 10.9375 C7.58765625 11.7934375 7.6753125 12.649375 7.765625 13.53125 C7.96802303 15.66317593 8.11430423 17.80029159 8.25 19.9375 C8.6776074 23.19629731 8.6776074 23.19629731 11.5 24.625 C12.325 25.07875 13.15 25.5325 14 26 C14.8125 28.6875 14.8125 28.6875 15 31 C13.35 31.33 11.7 31.66 10 32 C10 34.64 10 37.28 10 40 C10.99 40.33 11.98 40.66 13 41 C12.125 47.875 12.125 47.875 11 49 C10.95907063 51.33297433 10.95758277 53.66705225 11 56 C12.32 56.33 13.64 56.66 15 57 C14.8125 58.8125 14.8125 58.8125 14 61 C12.34467377 62.01866229 10.67739862 63.01810813 9 64 C6.65807409 67.23408816 6.83393277 70.09742018 7 74 C7 75.66666667 7 77.33333333 7 79 C3.25 81 3.25 81 1 81 C0.62875 81.825 0.2575 82.65 -0.125 83.5 C-2.32510626 87.60686503 -4.73179989 91.64669051 -8 95 C-8.99 95 -9.98 95 -11 95 C-11.66 97.97 -12.32 100.94 -13 104 C-19.625 104.25 -19.625 104.25 -23 102 C-22.30777344 101.41605469 -22.30777344 101.41605469 -21.6015625 100.8203125 C-5.12194583 86.68562152 6.41031948 72.12527107 8.78125 49.875 C9.657924 34.34534637 7.16161192 17.98880178 0.734375 3.75 C0 2 0 2 0 0 Z " fill="#428FBA" transform="translate(249,104)"/>
<path d="M0 0 C-1.47049607 4.57298777 -4.07635817 7.81196339 -7.1875 11.375 C-7.68580322 11.9515332 -8.18410645 12.52806641 -8.69750977 13.12207031 C-10.12130779 14.75757951 -11.55687892 16.38153652 -13 18 C-13.61359375 18.68835938 -14.2271875 19.37671875 -14.859375 20.0859375 C-27.36865261 33.27641339 -48.04507562 46.33420294 -66 50 C-66.99 49.67 -67.98 49.34 -69 49 C-66.525 48.505 -66.525 48.505 -64 48 C-64 47.34 -64 46.68 -64 46 C-61.03 45.505 -61.03 45.505 -58 45 C-58.33 41.7 -58.66 38.4 -59 35 C-58.34 35 -57.68 35 -57 35 C-57 36.32 -57 37.64 -57 39 C-56.34 39 -55.68 39 -55 39 C-54.67 38.34 -54.34 37.68 -54 37 C-52.6696875 37.2784375 -52.6696875 37.2784375 -51.3125 37.5625 C-47.37522059 38.08251804 -44.5483397 37.77416985 -41 36 C-41.66 35.01 -42.32 34.02 -43 33 C-38.25 30 -38.25 30 -36 30 C-36 30.66 -36 31.32 -36 32 C-35.443125 31.525625 -34.88625 31.05125 -34.3125 30.5625 C-31.81653926 28.87604004 -29.9553763 28.41046893 -27 28 C-27 26.35 -27 24.7 -27 23 C-24.36095629 21.58622659 -21.92879371 20.62759865 -19 20 C-18.67 18.35 -18.34 16.7 -18 15 C-17.34 15 -16.68 15 -16 15 C-15.67 14.34 -15.34 13.68 -15 13 C-13.68 13 -12.36 13 -11 13 C-10.67 10.69 -10.34 8.38 -10 6 C-8.35 5.67 -6.7 5.34 -5 5 C-4.814375 4.0409375 -4.814375 4.0409375 -4.625 3.0625 C-4.41875 2.381875 -4.2125 1.70125 -4 1 C-2 0 -2 0 0 0 Z " fill="#3D8BD3" transform="translate(299,227)"/>
<path d="M0 0 C0 2.31 0 4.62 0 7 C-1.134375 6.979375 -2.26875 6.95875 -3.4375 6.9375 C-6.81575674 6.58422523 -6.81575674 6.58422523 -8 8 C-8.23075082 9.34747084 -8.41153063 10.70377565 -8.5625 12.0625 C-8.706875 13.361875 -8.85125 14.66125 -9 16 C-9.78375 16.268125 -10.5675 16.53625 -11.375 16.8125 C-14.28114923 17.84814432 -14.28114923 17.84814432 -16 21 C-16.24246783 24.20379124 -16.24246783 24.20379124 -16.125 27.6875 C-16.10695312 28.86699219 -16.08890625 30.04648438 -16.0703125 31.26171875 C-16.04710937 32.16535156 -16.02390625 33.06898438 -16 34 C-6.73360282 35.4708567 1.4937123 34.4917922 9.5625 29.375 C12 28 12 28 16 28 C16 27.34 16 26.68 16 26 C17.32 26.33 18.64 26.66 20 27 C9.95070678 33.24353994 0.21667641 37.19269961 -11.125 40.3125 C-11.78927002 40.49643311 -12.45354004 40.68036621 -13.13793945 40.86987305 C-14.74676339 41.29439755 -16.37254689 41.65368818 -18 42 C-20.11081224 39.88918776 -19.28971892 35.46463611 -19.3125 32.5625 C-19.30195273 20.59954689 -16.47659994 13.93822219 -8.21875 5.12890625 C-2.8733945 0 -2.8733945 0 0 0 Z " fill="#37A691" transform="translate(176,135)"/>
<path d="M0 0 C16.51909393 5.67472471 28.81952021 24.07455313 38 38 C37.505 38.99 37.505 38.99 37 40 C35 39 35 39 33 36 C29.93443402 35.26656572 29.93443402 35.26656572 27 35 C27 34.34 27 33.68 27 33 C26.34 33 25.68 33 25 33 C24.87625 31.96875 24.7525 30.9375 24.625 29.875 C23.85892529 24.75894481 23.85892529 24.75894481 22 20 C18.47548841 18.53977565 18.47548841 18.53977565 15 18 C15 16 15 14 15 12 C13.865625 11.87625 12.73125 11.7525 11.5625 11.625 C9.7990625 11.315625 9.7990625 11.315625 8 11 C7.67 10.34 7.34 9.68 7 9 C6.195625 9.165 5.39125 9.33 4.5625 9.5 C2 10 2 10 1 10 C1.33 7.36 1.66 4.72 2 2 C1.34 2 0.68 2 0 2 C0 1.34 0 0.68 0 0 Z " fill="#4284CD" transform="translate(265,61)"/>
<path d="M0 0 C0.495 0.99 0.495 0.99 1 2 C1.66 2.33 2.32 2.66 3 3 C2.34 4.32 1.68 5.64 1 7 C-0.98 7 -2.96 7 -5 7 C-5.33 7.66 -5.66 8.32 -6 9 C-6.495 8.01 -6.495 8.01 -7 7 C-7.598125 7.165 -8.19625 7.33 -8.8125 7.5 C-11 8 -11 8 -14 8 C-13.79375 8.598125 -13.5875 9.19625 -13.375 9.8125 C-13 12 -13 12 -15 15 C-15.66 14.67 -16.32 14.34 -17 14 C-17 14.66 -17 15.32 -17 16 C-17.66 15.67 -18.32 15.34 -19 15 C-19.99 15 -20.98 15 -22 15 C-22.66 15.66 -23.32 16.32 -24 17 C-24.66 17 -25.32 17 -26 17 C-27.33783393 17.31478446 -28.67203709 17.64587656 -30 18 C-30.33 20.31 -30.66 22.62 -31 25 C-31.88429688 24.90976563 -32.76859375 24.81953125 -33.6796875 24.7265625 C-37.92318458 25.07602697 -39.14250535 26.41120437 -42.125 29.375 C-44.96152175 32.15850265 -47.31149692 34.45320839 -51 36 C-49.02538709 33.64009676 -47.03230931 31.30964906 -45 29 C-44.27490234 28.17242187 -44.27490234 28.17242187 -43.53515625 27.328125 C-31.92882184 14.92440884 -15.65379314 6.02282467 0 0 Z " fill="#36AD81" transform="translate(158,47)"/>
<path d="M0 0 C0.66 1.32 1.32 2.64 2 4 C1.01 4.99 0.02 5.98 -1 7 C-1 6.34 -1 5.68 -1 5 C-4.53586014 8.17320782 -6.58578031 10.16743695 -7 15 C-8.1446875 15.1546875 -8.1446875 15.1546875 -9.3125 15.3125 C-12.23589031 16.06034403 -13.22714335 16.60664352 -15 19 C-16.02649828 21.5662457 -16.03605187 22.8357637 -15.4375 25.5625 C-15 28 -15 28 -17 31 C-18.32 31 -19.64 31 -21 31 C-21.495 32.485 -21.495 32.485 -22 34 C-22.66 34 -23.32 34 -24 34 C-23.34 34.99 -22.68 35.98 -22 37 C-22.375 39.1875 -22.375 39.1875 -23 41 C-23.66 41 -24.32 41 -25 41 C-24.34 42.65 -23.68 44.3 -23 46 C-25.97 46.495 -25.97 46.495 -29 47 C-29.33 45.68 -29.66 44.36 -30 43 C-29.34 43 -28.68 43 -28 43 C-27.74476562 41.96552734 -27.74476562 41.96552734 -27.484375 40.91015625 C-23.04888115 23.71082105 -14.23452791 12.4769826 -1 1 C-0.67 0.67 -0.34 0.34 0 0 Z " fill="#25BE68" transform="translate(118,73)"/>
<path d="M0 0 C0.66 0.33 1.32 0.66 2 1 C0.3125 3 0.3125 3 -2 5 C-3.2684375 4.9690625 -3.2684375 4.9690625 -4.5625 4.9375 C-5.366875 4.958125 -6.17125 4.97875 -7 5 C-8.81883009 7.3832946 -10 8.95818337 -10 12 C-10.66 12 -11.32 12 -12 12 C-11.690625 12.598125 -11.38125 13.19625 -11.0625 13.8125 C-10 16 -10 16 -9 19 C-6.99983534 20.20882096 -6.99983534 20.20882096 -5 21 C-5.66 21.33 -6.32 21.66 -7 22 C-13.79347039 19.3060376 -18.11053955 15.35760028 -23 10 C-22.67 9.01 -22.34 8.02 -22 7 C-20.18994141 6.12451172 -20.18994141 6.12451172 -17.8515625 5.4296875 C-17.01109375 5.17316406 -16.170625 4.91664063 -15.3046875 4.65234375 C-14.42039063 4.39582031 -13.53609375 4.13929688 -12.625 3.875 C-11.7484375 3.61074219 -10.871875 3.34648437 -9.96875 3.07421875 C-8.33713743 2.58273912 -6.70396914 2.09637571 -5.06884766 1.61669922 C-3.36927472 1.11007646 -1.68246643 0.56082214 0 0 Z " fill="#2CAC9B" transform="translate(186,179)"/>
<path d="M0 0 C-2.83775732 1.52901993 -5.50706131 2.45782014 -8.625 3.25 C-13.57269161 4.67200322 -17.56155746 6.91452022 -21.87109375 9.6953125 C-24 11 -24 11 -27 12 C-27.68620031 13.32338632 -28.34786461 14.65949948 -29 16 C-30.59716811 18.06722076 -32.29136328 20.02157854 -34 22 C-34.66 21.67 -35.32 21.34 -36 21 C-35.43628586 17.73045798 -34.50037734 16.17424117 -32 14 C-33.32 14.33 -34.64 14.66 -36 15 C-36 13.68 -36 12.36 -36 11 C-31.545 10.505 -31.545 10.505 -27 10 C-27.165 9.236875 -27.33 8.47375 -27.5 7.6875 C-28 5 -28 5 -28 2 C-26.948125 2.185625 -25.89625 2.37125 -24.8125 2.5625 C-21.25858678 2.97032611 -19.38120088 2.88555261 -16 2 C-10.5346335 0.63365838 -5.64370798 -0.24015779 0 0 Z M-24 4 C-23 6 -23 6 -23 6 Z " fill="#2DAB91" transform="translate(188,119)"/>
<path d="M0 0 C2.46968633 2.46968633 3.06997969 4.57488587 4.1875 7.875 C4.55230469 8.92429687 4.91710937 9.97359375 5.29296875 11.0546875 C5.98462433 13.93594885 6.03230681 15.27786612 5 18 C4.34 16.68 3.68 15.36 3 14 C2.34 14 1.68 14 1 14 C1 12.02 1 10.04 1 8 C-4.74148211 9.47509313 -4.74148211 9.47509313 -8.5 13.6875 C-8.665 14.450625 -8.83 15.21375 -9 16 C-9.66 16 -10.32 16 -11 16 C-12.625 14 -12.625 14 -14 12 C-15.98 12.33 -17.96 12.66 -20 13 C-17.85439474 10.85439474 -16.11227829 10.02118187 -13.375 8.75 C-8.447752 6.35083128 -4.2432981 3.4491613 0 0 Z " fill="#3A95B9" transform="translate(239,111)"/>
<path d="M0 0 C0.33 0.66 0.66 1.32 1 2 C4.34493684 2.99444068 6.68955197 3.10348268 10 2 C13 5.625 13 5.625 13 9 C14.27875 9.144375 15.5575 9.28875 16.875 9.4375 C19.25692894 9.70642746 20.84452691 9.92226346 23 11 C24.093125 10.95875 25.18625 10.9175 26.3125 10.875 C31.20645734 11.04089686 33.60223376 12.60223376 37 16 C32.14620607 17.59878419 28.31746317 16.18058573 23.6875 14.5625 C22.90511963 14.2953418 22.12273926 14.02818359 21.31665039 13.75292969 C-0.47961123 6.04077754 -0.47961123 6.04077754 -3 1 C-2.01 0.67 -1.02 0.34 0 0 Z " fill="#2AB18D" transform="translate(139,262)"/>
<path d="M0 0 C2.49361571 1.20381448 4.68143083 2.45428722 7 4 C9.64632287 3.6878236 9.64632287 3.6878236 12 3 C12 3.763125 12 4.52625 12 5.3125 C12.70180149 8.1006883 12.70180149 8.1006883 14.84765625 9 C16.88309495 9.74668651 18.91262742 10.41515529 21 11 C21 12.65 21 14.3 21 16 C21.78375 16.12375 22.5675 16.2475 23.375 16.375 C26 17 26 17 28 19 C28.625 21.625 28.625 21.625 29 24 C24.73370139 22.54379107 21.3973403 20.30976617 17.875 17.5625 C17.31530518 17.12945557 16.75561035 16.69641113 16.17895508 16.25024414 C10.33979949 11.63413822 4.99702933 6.51776184 0 1 C0 0.67 0 0.34 0 0 Z M11 8 C12 10 12 10 12 10 Z " fill="#35AF7B" transform="translate(107,239)"/>
<path d="M0 0 C0.66 0 1.32 0 2 0 C2 1.32 2 2.64 2 4 C2.66 4 3.32 4 4 4 C4.33 3.34 4.66 2.68 5 2 C6.3303125 2.2784375 6.3303125 2.2784375 7.6875 2.5625 C10.94018102 2.99209938 12.86191289 2.78452178 16 2 C17.99897128 1.66055205 19.99875639 1.32578384 22 1 C19.93207315 3.24695091 18.06370136 4.64110428 15.3046875 5.9375 C14.5926416 6.27402588 13.8805957 6.61055176 13.14697266 6.95727539 C12.39722168 7.30137451 11.6474707 7.64547363 10.875 8 C10.11106934 8.35376709 9.34713867 8.70753418 8.56005859 9.07202148 C-5.49920189 15.50026604 -5.49920189 15.50026604 -10 14 C-8.35 13.67 -6.7 13.34 -5 13 C-5 12.34 -5 11.68 -5 11 C-3.02 10.67 -1.04 10.34 1 10 C0.67 6.7 0.34 3.4 0 0 Z " fill="#3496C6" transform="translate(240,262)"/>
<path d="M0 0 C12.40375744 2.2740222 23.10073005 7.89992472 34 14 C34 14.99 34 15.98 34 17 C32 18 32 18 29 18 C28.01 18.33 27.02 18.66 26 19 C25.67 16.36 25.34 13.72 25 11 C23.576875 11.061875 23.576875 11.061875 22.125 11.125 C19 11 19 11 17 9 C15.02 9.99 15.02 9.99 13 11 C12.67 9.68 12.34 8.36 12 7 C11.34 7 10.68 7 10 7 C10 6.01 10 5.02 10 4 C6.7 3.34 3.4 2.68 0 2 C0 1.34 0 0.68 0 0 Z " fill="#3C91BF" transform="translate(230,45)"/>
<path d="M0 0 C0.969375 0.86625 1.93875 1.7325 2.9375 2.625 C12.87177085 11.06614397 22.8523551 16.13785935 36 17 C36 17.33 36 17.66 36 18 C34.08574219 17.98259766 34.08574219 17.98259766 32.1328125 17.96484375 C30.46354313 17.95546583 28.79427217 17.94636563 27.125 17.9375 C26.28324219 17.92912109 25.44148438 17.92074219 24.57421875 17.91210938 C23.76855469 17.90888672 22.96289062 17.90566406 22.1328125 17.90234375 C21.38918457 17.89710693 20.64555664 17.89187012 19.87939453 17.88647461 C17.90867432 17.88213364 17.90867432 17.88213364 16 19 C13 17 13 17 12.5625 15 C12.19659323 12.86667816 12.19659323 12.86667816 10.3125 11.875 C7.56515803 10.8354652 4.79906888 9.89061283 2 9 C2 7.68 2 6.36 2 5 C1.01 5.33 0.02 5.66 -1 6 C-1 5.34 -1 4.68 -1 4 C-1.66 3.67 -2.32 3.34 -3 3 C-2.01 3 -1.02 3 0 3 C0 2.01 0 1.02 0 0 Z " fill="#35A78E" transform="translate(156,197)"/>
<path d="M0 0 C0.66 0.66 1.32 1.32 2 2 C1.45859375 3.05960938 1.45859375 3.05960938 0.90625 4.140625 C-3.93088471 14.83606731 -4.78000689 26.82728021 -2.2734375 38.3359375 C-2 41 -2 41 -3.328125 43.23046875 C-4.27945313 44.19919922 -4.27945313 44.19919922 -5.25 45.1875 C-5.87390625 45.84105469 -6.4978125 46.49460938 -7.140625 47.16796875 C-7.75421875 47.77253906 -8.3678125 48.37710938 -9 49 C-9.57234375 49.57363281 -10.1446875 50.14726562 -10.734375 50.73828125 C-11.15203125 51.15464844 -11.5696875 51.57101563 -12 52 C-10.828125 45.9453125 -10.828125 45.9453125 -10 44 C-7.94824219 42.87841797 -7.94824219 42.87841797 -6 42 C-6.01047363 41.16339844 -6.02094727 40.32679688 -6.03173828 39.46484375 C-6.06606018 36.3263452 -6.09101493 33.18794313 -6.10986328 30.04931641 C-6.12472879 28.03671881 -6.150157 26.02420812 -6.17578125 24.01171875 C-6.20942447 17.3167172 -6.07013149 11.38969719 -4 5 C-4.66 4.67 -5.32 4.34 -6 4 C-5.38125 3.896875 -4.7625 3.79375 -4.125 3.6875 C-1.63473516 3.12474627 -1.63473516 3.12474627 0 0 Z " fill="#39A483" transform="translate(150,142)"/>
<path d="M0 0 C1.875 0.5625 1.875 0.5625 4 2 C7.54109128 11.31866128 7.12982221 21.19167228 7.0625 31 C7.05798828 32.25167969 7.05347656 33.50335938 7.04882812 34.79296875 C7.03711415 37.86202941 7.02071073 40.93098907 7 44 C6.67 44 6.34 44 6 44 C5.67 36.74 5.34 29.48 5 22 C4.34 22 3.68 22 3 22 C2.20046862 18.71303767 1.90341064 17.28976808 3 14 C2.67 13.071875 2.34 12.14375 2 11.1875 C0.88688382 7.63944218 1.14941817 5.57244368 2 2 C1.34 2 0.68 2 0 2 C0 1.34 0 0.68 0 0 Z " fill="#3D82ED" transform="translate(311,130)"/>
<path d="M0 0 C0.66 1.32 1.32 2.64 2 4 C1.01 4.99 0.02 5.98 -1 7 C-1 6.34 -1 5.68 -1 5 C-4.53586014 8.17320782 -6.58578031 10.16743695 -7 15 C-8.1446875 15.1546875 -8.1446875 15.1546875 -9.3125 15.3125 C-12.21867978 16.05594134 -13.19913049 16.65886963 -15 19 C-15.33 19.99 -15.66 20.98 -16 22 C-20.33333333 26.66666667 -20.33333333 26.66666667 -23 28 C-18.86839191 16.58694398 -9.91993159 8.73536467 -1 1 C-0.67 0.67 -0.34 0.34 0 0 Z " fill="#28B973" transform="translate(118,73)"/>
<path d="M0 0 C0.33 0.66 0.66 1.32 1 2 C1.66 2.33 2.32 2.66 3 3 C2.34 4.32 1.68 5.64 1 7 C-0.98 7 -2.96 7 -5 7 C-5.33 7.66 -5.66 8.32 -6 9 C-6.33 8.34 -6.66 7.68 -7 7 C-7.598125 7.165 -8.19625 7.33 -8.8125 7.5 C-11 8 -11 8 -14 8 C-13.79375 8.598125 -13.5875 9.19625 -13.375 9.8125 C-13 12 -13 12 -15 15 C-15.66 14.67 -16.32 14.34 -17 14 C-17 14.66 -17 15.32 -17 16 C-17.66 15.67 -18.32 15.34 -19 15 C-18.690625 14.236875 -18.38125 13.47375 -18.0625 12.6875 C-17.32106407 10.81210323 -16.63771783 8.91315348 -16 7 C-14.41772461 6.0168457 -14.41772461 6.0168457 -12.40234375 5.17578125 C-11.68369141 4.86962891 -10.96503906 4.56347656 -10.22460938 4.24804688 C-9.09249023 3.78495117 -9.09249023 3.78495117 -7.9375 3.3125 C-7.17888672 2.99216797 -6.42027344 2.67183594 -5.63867188 2.34179688 C-3.76317458 1.55149298 -1.8820877 0.77447803 0 0 Z " fill="#2FB091" transform="translate(158,47)"/>
<path d="M0 0 C0.33 0 0.66 0 1 0 C2.29859189 5.72850779 2.22271135 11.33749672 2.25 17.1875 C2.270625 18.27353516 2.29125 19.35957031 2.3125 20.47851562 C2.34623518 27.49965096 1.45499153 33.41355026 -1 40 C-2.22419163 36.06204091 -1.48320272 33.83887763 0 30 C-0.99 30 -1.98 30 -3 30 C-3 28.35 -3 26.7 -3 25 C-2.34 25 -1.68 25 -1 25 C-1 23.35 -1 21.7 -1 20 C-0.34 20 0.32 20 1 20 C0.67 19.01 0.34 18.02 0 17 C-0.07973476 15.66474283 -0.10771338 14.32587917 -0.09765625 12.98828125 C-0.09282227 11.85229492 -0.09282227 11.85229492 -0.08789062 10.69335938 C-0.07951172 9.90767578 -0.07113281 9.12199219 -0.0625 8.3125 C-0.05798828 7.51521484 -0.05347656 6.71792969 -0.04882812 5.89648438 C-0.0370585 3.93095743 -0.01912348 1.96546915 0 0 Z " fill="#4290B7" transform="translate(245,129)"/>
<path d="M0 0 C1.32 0.33 2.64 0.66 4 1 C1.81623234 2.13277268 -0.37157128 3.25622789 -2.5625 4.375 C-3.17158203 4.69210938 -3.78066406 5.00921875 -4.40820312 5.3359375 C-11.62901504 9.00365149 -18.13811668 10.32963116 -26.1875 10.25 C-26.98091797 10.25773438 -27.77433594 10.26546875 -28.59179688 10.2734375 C-35.68808231 10.24960447 -35.68808231 10.24960447 -39 8 C-33.08051886 7.22002131 -27.34739554 6.99347577 -21.375 7.125 C-15.45140995 7.17296429 -11.25836352 6.73434903 -6 4 C-5.67 3.34 -5.34 2.68 -5 2 C-3.35 2 -1.7 2 0 2 C0 1.34 0 0.68 0 0 Z " fill="#439BA1" transform="translate(220,193)"/>
<path d="M0 0 C0.66 0.66 1.32 1.32 2 2 C1.38125 2.598125 0.7625 3.19625 0.125 3.8125 C-2.13676954 6.00811144 -2.13676954 6.00811144 -4 9 C-4.99 9 -5.98 9 -7 9 C-7.66 11.97 -8.32 14.94 -9 18 C-15.625 18.25 -15.625 18.25 -19 16 C-18.46632812 15.68289062 -17.93265625 15.36578125 -17.3828125 15.0390625 C-10.69248835 10.84892869 -5.41186317 5.716916 0 0 Z " fill="#3399C1" transform="translate(245,190)"/>
<path d="M0 0 C1.65 0 3.3 0 5 0 C5 0.66 5 1.32 5 2 C6.7015625 1.9690625 6.7015625 1.9690625 8.4375 1.9375 C12 2 12 2 13 3 C13.64768686 6.89431974 13.95870552 10.5427676 11.73046875 13.9296875 C10.125 15.5625 10.125 15.5625 7 18 C6.34 18 5.68 18 5 18 C4.67 18.99 4.34 19.98 4 21 C2.02 21.33 0.04 21.66 -2 22 C1.11801803 18.62214713 4.60070341 15.97536578 8.29296875 13.26953125 C9.93841965 12.11005343 9.93841965 12.11005343 11 11 C11.16666667 8 11.16666667 8 11 5 C9.90801858 3.70043665 9.90801858 3.70043665 7.25 3.6875 C3.32316275 4.06508051 1.82653264 5.33973399 -1 8 C-1.33 7.34 -1.66 6.68 -2 6 C-1.01 5.34 -0.02 4.68 1 4 C0.67 2.68 0.34 1.36 0 0 Z " fill="#40989F" transform="translate(198,153)"/>
<path d="M0 0 C5.08938811 1.59043379 8.87456643 4.7446951 13 8 C12.67 8.99 12.34 9.98 12 11 C10.68 11 9.36 11 8 11 C7.67 10.34 7.34 9.68 7 9 C6.195625 9.165 5.39125 9.33 4.5625 9.5 C2 10 2 10 1 10 C1.33 7.36 1.66 4.72 2 2 C1.34 2 0.68 2 0 2 C0 1.34 0 0.68 0 0 Z " fill="#3A90CE" transform="translate(265,61)"/>
<path d="M0 0 C1.20306053 3.6091816 0.70720644 4.34985164 -0.75 7.75 C-1.12253906 8.636875 -1.49507812 9.52375 -1.87890625 10.4375 C-2.54574354 11.96169953 -3.21814762 13.48351333 -3.90234375 15 C-5.54784548 18.66758595 -6.51301637 22.0067342 -7 26 C-8.32 26.33 -9.64 26.66 -11 27 C-8.57382441 17.76350695 -5.3243092 7.9864638 0 0 Z " fill="#37B66C" transform="translate(94,101)"/>
<path d="M0 0 C6.75 -0.125 6.75 -0.125 9 1 C10.093125 0.95875 11.18625 0.9175 12.3125 0.875 C17.20645734 1.04089686 19.60223376 2.60223376 23 6 C17.79372346 7.85559754 13.62478049 5.84335018 8.6875 4.0625 C7.85154297 3.77181641 7.01558594 3.48113281 6.15429688 3.18164062 C4.09906197 2.46524446 2.04899155 1.73406239 0 1 C0 0.67 0 0.34 0 0 Z " fill="#30AE9D" transform="translate(153,272)"/>
<path d="M0 0 C0.66 0.33 1.32 0.66 2 1 C-0.44399917 4.15683227 -1.67996286 4.94575642 -5.6875 5.625 C-6.37199219 5.67785156 -7.05648437 5.73070312 -7.76171875 5.78515625 C-11.57914969 6.15157632 -15.27523368 7.11191914 -19 8 C-18.30621489 11.26011642 -17.54106009 12.79038253 -15 15 C-15.33 15.66 -15.66 16.32 -16 17 C-18.31 14.69 -20.62 12.38 -23 10 C-22.67 9.01 -22.34 8.02 -22 7 C-20.18994141 6.12451172 -20.18994141 6.12451172 -17.8515625 5.4296875 C-17.01109375 5.17316406 -16.170625 4.91664063 -15.3046875 4.65234375 C-14.42039063 4.39582031 -13.53609375 4.13929688 -12.625 3.875 C-11.7484375 3.61074219 -10.871875 3.34648437 -9.96875 3.07421875 C-8.33713743 2.58273912 -6.70396914 2.09637571 -5.06884766 1.61669922 C-3.36927472 1.11007646 -1.68246643 0.56082214 0 0 Z " fill="#3D9F92" transform="translate(186,179)"/>
<path d="M0 0 C-0.33 0.66 -0.66 1.32 -1 2 C-3.5033648 2.26008985 -5.92761831 2.42120408 -8.4375 2.5 C-13.7034915 2.38992942 -13.7034915 2.38992942 -18 5 C-18.99 5 -19.98 5 -21 5 C-21 5.66 -21 6.32 -21 7 C-23.64 6.34 -26.28 5.68 -29 5 C-25.55651271 2.70434181 -22.42621241 2.0954911 -18.4375 1.375 C-17.72529297 1.24311279 -17.01308594 1.11122559 -16.27929688 0.9753418 C-10.82219831 0.02034955 -5.54149823 -0.35966455 0 0 Z " fill="#3CA296" transform="translate(194,41)"/>
<path d="M0 0 C7.93396732 -0.24923458 15.2441657 0.29005228 23 2 C21.68 2.99 20.36 3.98 19 5 C17 4 17 4 15 2 C14.67 2.66 14.34 3.32 14 4 C14 3.34 14 2.68 14 2 C10.88214887 2.64644661 10.88214887 2.64644661 10 5 C6.05140217 4.4359146 3.29120954 3.2568294 0 1 C0 0.67 0 0.34 0 0 Z " fill="#329DB5" transform="translate(207,43)"/>
<path d="M0 0 C0.99 0 1.98 0 3 0 C3 0.66 3 1.32 3 2 C4.98 1.34 6.96 0.68 9 0 C10.65 1.65 12.3 3.3 14 5 C4.58997722 7.29612756 4.58997722 7.29612756 0 7 C0.66 6.67 1.32 6.34 2 6 C2 4.35 2 2.7 2 1 C1.34 0.67 0.68 0.34 0 0 Z " fill="#3A9AB4" transform="translate(216,273)"/>
<path d="M0 0 C0.66 0 1.32 0 2 0 C2.68707555 2.49064888 3 4.37886292 3 7 C3.66 7.33 4.32 7.66 5 8 C3.6875 9.5 3.6875 9.5 2 11 C1.01 11 0.02 11 -1 11 C-1.125 3.375 -1.125 3.375 0 0 Z M8 0 C8.66 0 9.32 0 10 0 C10.33 1.65 10.66 3.3 11 5 C10.01 5.33 9.02 5.66 8 6 C7.61781233 4.34385343 7.28604898 2.67542976 7 1 C7.33 0.67 7.66 0.34 8 0 Z " fill="#27B08B" transform="translate(148,202)"/>
<path d="M0 0 C0.99 0.33 1.98 0.66 3 1 C3 1.66 3 2.32 3 3 C3.66 3 4.32 3 5 3 C5 4.32 5 5.64 5 7 C5.15339844 7.61359375 5.30679688 8.2271875 5.46484375 8.859375 C6.16199254 11.64797018 6.34455958 14.38564014 6.5625 17.25 C6.64628906 18.32765625 6.73007813 19.4053125 6.81640625 20.515625 C6.87699219 21.33546875 6.93757813 22.1553125 7 23 C4.84041868 20.84041868 4.49968731 19.8444081 3.7109375 16.97265625 C3.49179688 16.18052734 3.27265625 15.38839844 3.046875 14.57226562 C2.71429688 13.32993164 2.71429688 13.32993164 2.375 12.0625 C2.14554687 11.23814453 1.91609375 10.41378906 1.6796875 9.56445312 C0 3.41059803 0 3.41059803 0 0 Z " fill="#3AB36C" transform="translate(80,181)"/>
<path d="M0 0 C-0.33 0.99 -0.66 1.98 -1 3 C-5.455 3.495 -5.455 3.495 -10 4 C-10.33 4.99 -10.66 5.98 -11 7 C-11.66 6.67 -12.32 6.34 -13 6 C-13 5.34 -13 4.68 -13 4 C-13.9075 4.350625 -14.815 4.70125 -15.75 5.0625 C-19.00591313 6.00170571 -19.92749994 5.95514676 -23 5 C-7.53002183 -0.48580786 -7.53002183 -0.48580786 0 0 Z " fill="#399E9B" transform="translate(199,129)"/>
<path d="M0 0 C1.75 0.125 1.75 0.125 4 1 C8 6.22222222 8 6.22222222 8 9 C6.35 9.33 4.7 9.66 3 10 C3 9.34 3 8.68 3 8 C2.34 8 1.68 8 1 8 C0 1.125 0 1.125 0 0 Z " fill="#378AE5" transform="translate(289,86)"/>
<path d="M0 0 C-1.40209544 4.07415167 -3.34447678 6.98279823 -6.0625 10.3125 C-6.77535156 11.19550781 -7.48820312 12.07851562 -8.22265625 12.98828125 C-8.80917969 13.65214844 -9.39570313 14.31601563 -10 15 C-10.33 15 -10.66 15 -11 15 C-11.22036864 11.14354879 -10.60355101 8.50776784 -9 5 C-7.68 5 -6.36 5 -5 5 C-4.814375 4.0409375 -4.814375 4.0409375 -4.625 3.0625 C-4.41875 2.381875 -4.2125 1.70125 -4 1 C-2 0 -2 0 0 0 Z " fill="#4388D5" transform="translate(299,227)"/>
<path d="M0 0 C1.32 0.33 2.64 0.66 4 1 C-3.24881998 5.50362986 -10.60006164 10.04049465 -19 12 C-19.99 11.67 -20.98 11.34 -22 11 C-21.20335937 10.68546875 -20.40671875 10.3709375 -19.5859375 10.046875 C-12.76738275 7.39369304 -12.76738275 7.39369304 -6.5 3.6875 C-4 2 -4 2 0 2 C0 1.34 0 0.68 0 0 Z " fill="#409D96" transform="translate(192,161)"/>
<path d="M0 0 C3.1333363 3.1333363 3.82900488 7.14237217 5.125 11.3125 C5.40214844 12.16779297 5.67929687 13.02308594 5.96484375 13.90429688 C6.22652344 14.73638672 6.48820312 15.56847656 6.7578125 16.42578125 C6.9964502 17.18286377 7.23508789 17.93994629 7.48095703 18.7199707 C8.04807298 21.21117287 8.08929621 23.45337314 8 26 C7.34 25.67 6.68 25.34 6 25 C5.4375 23.109375 5.4375 23.109375 5 20.75 C4.30147026 17.29555216 3.40269989 14.2437435 2 11 C0.55829517 7.15545379 -0.24200341 4.11405794 0 0 Z " fill="#4980D0" transform="translate(309,113)"/>
<path d="M0 0 C-1.45061611 3.79391905 -2.99149811 7.46503667 -5 11 C-5.99 11.33 -6.98 11.66 -8 12 C-8 11.01 -8 10.02 -8 9 C-7.34 9 -6.68 9 -6 9 C-6.66 7.35 -7.32 5.7 -8 4 C-7.34 4 -6.68 4 -6 4 C-6 3.01 -6 2.02 -6 1 C-4 0 -4 0 0 0 Z " fill="#3E86E4" transform="translate(304,216)"/>
<path d="M0 0 C0.99 0.33 1.98 0.66 3 1 C1.73113036 2.12721436 0.45982438 3.25168658 -0.8125 4.375 C-1.52019531 5.00148438 -2.22789062 5.62796875 -2.95703125 6.2734375 C-5 8 -5 8 -8 10 C-8.66 9.34 -9.32 8.68 -10 8 C-9.34 6.68 -8.68 5.36 -8 4 C-7.34 4.33 -6.68 4.66 -6 5 C-6 4.01 -6 3.02 -6 2 C-5.38125 1.855625 -4.7625 1.71125 -4.125 1.5625 C-1.96741678 1.06847775 -1.96741678 1.06847775 0 0 Z " fill="#3B96B7" transform="translate(237,95)"/>
<path d="M0 0 C0.93688286 3.20353493 1.19504794 6.1662416 1.25 9.5 C1.27578125 10.4384375 1.3015625 11.376875 1.328125 12.34375 C0.95038744 15.40162546 0.0306824 16.73418595 -2 19 C-2.99 18.67 -3.98 18.34 -5 18 C-4.53787109 17.19949219 -4.53787109 17.19949219 -4.06640625 16.3828125 C-2.79674772 13.54584655 -2.38664325 10.94729082 -1.9375 7.875 C-1.09722222 2.19444444 -1.09722222 2.19444444 0 0 Z " fill="#3EA587" transform="translate(147,201)"/>
<path d="M0 0 C0.66 0.33 1.32 0.66 2 1 C-0.12232979 2.17176518 -2.24757791 3.33754785 -4.375 4.5 C-4.97828125 4.83386719 -5.5815625 5.16773438 -6.203125 5.51171875 C-10.7734375 8 -10.7734375 8 -13 8 C-13 7.34 -13 6.68 -13 6 C-12.01 5.67 -11.02 5.34 -10 5 C-8.79117904 2.99983534 -8.79117904 2.99983534 -8 1 C-7.05125 1.020625 -6.1025 1.04125 -5.125 1.0625 C-2.09333717 1.22551826 -2.09333717 1.22551826 0 0 Z " fill="#4390BD" transform="translate(260,263)"/>
<path d="M0 0 C1.14275391 0.41572266 1.14275391 0.41572266 2.30859375 0.83984375 C8.62155522 3.05450314 14.32289 4.55485933 21 5 C21 5.33 21 5.66 21 6 C18.72923158 6.02699725 16.45837179 6.04639453 14.1875 6.0625 C12.29064453 6.07990234 12.29064453 6.07990234 10.35546875 6.09765625 C7 6 7 6 4 5 C4 4.34 4 3.68 4 3 C2.68 2.67 1.36 2.34 0 2 C0 1.34 0 0.68 0 0 Z " fill="#3D9D93" transform="translate(171,209)"/>
<path d="M0 0 C1.875 0.125 1.875 0.125 4 1 C5.25 4.0625 5.25 4.0625 6 7 C4.35 7.33 2.7 7.66 1 8 C0.67 5.36 0.34 2.72 0 0 Z " fill="#3691D0" transform="translate(258,128)"/>
<path d="M0 0 C-2.93471877 1.56925934 -5.807043 2.63284331 -9 3.5625 C-9.845625 3.81128906 -10.69125 4.06007813 -11.5625 4.31640625 C-13.70080843 4.91609211 -15.84218678 5.47553151 -18 6 C-18.33 5.34 -18.66 4.68 -19 4 C-6.625 -0.125 -6.625 -0.125 0 0 Z " fill="#3EA192" transform="translate(188,119)"/>
<path d="M0 0 C0 1.65 0 3.3 0 5 C-1.98 5.99 -1.98 5.99 -4 7 C-4.99 5.68 -5.98 4.36 -7 3 C-2.25 0 -2.25 0 0 0 Z " fill="#3293D0" transform="translate(263,257)"/>
<path d="M0 0 C-3.3 2.31 -6.6 4.62 -10 7 C-10.66 6.67 -11.32 6.34 -12 6 C-10.84279329 2.52837986 -10.0574321 1.86843073 -7 0 C-2.54545455 -1.27272727 -2.54545455 -1.27272727 0 0 Z " fill="#458DC2" transform="translate(274,256)"/>
<path d="M0 0 C2.125 0.9375 2.125 0.9375 4 2 C4 2.66 4 3.32 4 4 C4.66 4 5.32 4 6 4 C5.67 4.99 5.34 5.98 5 7 C2.69 6.67 0.38 6.34 -2 6 C-2 4.35 -2 2.7 -2 1 C-1.34 0.67 -0.68 0.34 0 0 Z " fill="#25B780" transform="translate(130,217)"/>
<path d="M0 0 C0.66 0.66 1.32 1.32 2 2 C1.01 4.31 0.02 6.62 -1 9 C-2.32 8.67 -3.64 8.34 -5 8 C-4.67 7.01 -4.34 6.02 -4 5 C-4.66 4.67 -5.32 4.34 -6 4 C-5.38125 3.896875 -4.7625 3.79375 -4.125 3.6875 C-1.63473516 3.12474627 -1.63473516 3.12474627 0 0 Z " fill="#31AE84" transform="translate(150,142)"/>
<path d="M0 0 C0.33 0.66 0.66 1.32 1 2 C1.8971875 2.2165625 1.8971875 2.2165625 2.8125 2.4375 C5.44872436 3.11538626 6.97995306 4.19638666 9 6 C9 6.66 9 7.32 9 8 C4.38486888 6.68139111 0.90102388 4.78644563 -3 2 C-2.01 1.34 -1.02 0.68 0 0 Z " fill="#3CA987" transform="translate(139,262)"/>
<path d="M0 0 C0.33 0.66 0.66 1.32 1 2 C1.66 2 2.32 2 3 2 C4.20628008 4.33214148 5.1654738 6.49642139 6 9 C8.00016466 10.20882096 8.00016466 10.20882096 10 11 C9.01 11.495 9.01 11.495 8 12 C5 10.9375 5 10.9375 2 9 C0.51924867 5.76926982 0 3.54592018 0 0 Z " fill="#35A597" transform="translate(171,189)"/>
<path d="M0 0 C0.33 0 0.66 0 1 0 C0.67 4.62 0.34 9.24 0 14 C-2 13 -2 13 -3 11 C-2.34 11 -1.68 11 -1 11 C-1 10.01 -1 9.02 -1 8 C-1.66 8 -2.32 8 -3 8 C-2.25 2.25 -2.25 2.25 0 0 Z " fill="#3E82EF" transform="translate(316,175)"/>
<path d="M0 0 C1.65 0 3.3 0 5 0 C4.875 2.3125 4.875 2.3125 4 5 C0.9375 6.8125 0.9375 6.8125 -2 8 C-1.34 5.36 -0.68 2.72 0 0 Z " fill="#3792CF" transform="translate(259,160)"/>
<path d="M0 0 C0.66 2.64 1.32 5.28 2 8 C-0.97 7.505 -0.97 7.505 -4 7 C-4 5.02 -4 3.04 -4 1 C-2 0 -2 0 0 0 Z " fill="#3C84EC" transform="translate(309,113)"/>
<path d="M0 0 C0.66 0.33 1.32 0.66 2 1 C-2.33333333 5.33333333 -6.66666667 9.66666667 -11 14 C-11.66 13.67 -12.32 13.34 -13 13 C-8.71 8.71 -4.42 4.42 0 0 Z " fill="#44AB79" transform="translate(120,69)"/>
<path d="M0 0 C-2.26708325 0.8655047 -4.53775079 1.71759315 -6.8125 2.5625 C-7.77639648 2.9327832 -7.77639648 2.9327832 -8.75976562 3.31054688 C-13.66015625 5.11328125 -13.66015625 5.11328125 -17 4 C-15.35 3.67 -13.7 3.34 -12 3 C-12 2.34 -12 1.68 -12 1 C-10.56496445 0.63597631 -9.12683494 0.28413409 -7.6875 -0.0625 C-6.88699219 -0.25972656 -6.08648437 -0.45695312 -5.26171875 -0.66015625 C-3 -1 -3 -1 0 0 Z " fill="#4495B4" transform="translate(247,272)"/>
<path d="M0 0 C6.75 -0.125 6.75 -0.125 9 1 C11.3329866 1.04022391 13.66706666 1.04320247 16 1 C14 3 14 3 12.01171875 3.265625 C7.56815987 3.23575234 4.04172469 3.08605145 0 1 C0 0.67 0 0.34 0 0 Z " fill="#39A791" transform="translate(153,272)"/>
<path d="M0 0 C0 0.66 0 1.32 0 2 C-0.66 2 -1.32 2 -2 2 C-2.33 2.66 -2.66 3.32 -3 4 C-3.99 4.33 -4.98 4.66 -6 5 C-7.66710346 6.49985609 -7.66710346 6.49985609 -9 8 C-9 7.34 -9 6.68 -9 6 C-10.32 5.34 -11.64 4.68 -13 4 C-11.2097939 3.32942113 -9.41778511 2.6636531 -7.625 2 C-6.62726563 1.62875 -5.62953125 1.2575 -4.6015625 0.875 C-2 0 -2 0 0 0 Z " fill="#3D96A9" transform="translate(222,208)"/>
<path d="M0 0 C0.99 0.33 1.98 0.66 3 1 C3 1.66 3 2.32 3 3 C3.639375 3.185625 4.27875 3.37125 4.9375 3.5625 C7 5 7 5 7.75 8.625 C7.8325 9.73875 7.915 10.8525 8 12 C6.25728062 9.702779 4.60088848 7.40133271 3 5 C2.01 4.34 1.02 3.68 0 3 C0 2.01 0 1.02 0 0 Z " fill="#4091BA" transform="translate(241,92)"/>
<path d="M0 0 C3.55007718 3.9050849 4.81819916 6.97734643 6 12 C3 11 3 11 1.3125 7.6875 C0 4 0 4 0 0 Z " fill="#4687D8" transform="translate(303,101)"/>
<path d="M0 0 C0.99 0 1.98 0 3 0 C3 3.96 3 7.92 3 12 C0.97649676 8.96474514 0.67875982 7.80573798 0.375 4.3125 C0.30023438 3.50425781 0.22546875 2.69601563 0.1484375 1.86328125 C0.09945312 1.24839844 0.05046875 0.63351563 0 0 Z " fill="#24C066" transform="translate(85,192)"/>
<path d="M0 0 C2 3 2 3 1.7578125 5.04296875 C1.171875 7.02864583 0.5859375 9.01432292 0 11 C-0.66 11 -1.32 11 -2 11 C-2.05399736 9.54207116 -2.09279177 8.08357288 -2.125 6.625 C-2.15980469 5.40683594 -2.15980469 5.40683594 -2.1953125 4.1640625 C-2 2 -2 2 0 0 Z " fill="#2AB384" transform="translate(138,185)"/>
<path d="M0 0 C0.99 0 1.98 0 3 0 C3 0.66 3 1.32 3 2 C4.32 2.33 5.64 2.66 7 3 C6.34 4.32 5.68 5.64 5 7 C3.0625 6.3125 3.0625 6.3125 1 5 C0.25 2.375 0.25 2.375 0 0 Z " fill="#2CAA97" transform="translate(168,209)"/>
<path d="M0 0 C-1.3125 1.5 -1.3125 1.5 -3 3 C-3.99 3 -4.98 3 -6 3 C-6.99 3.33 -7.98 3.66 -9 4 C-9 2.68 -9 1.36 -9 0 C-5.93109813 -1.53445094 -3.29905734 -0.54984289 0 0 Z " fill="#3392D0" transform="translate(265,60)"/>
<path d="M0 0 C2.5 1.25 2.5 1.25 5 3 C5 4.32 5 5.64 5 7 C4.01 7.33 3.02 7.66 2 8 C-0.1519437 4.77208445 -0.20086443 3.71599191 0 0 Z " fill="#22C068" transform="translate(91,208)"/>
<path d="M0 0 C0.66 0.33 1.32 0.66 2 1 C-0.31 3.64 -2.62 6.28 -5 9 C-5.66 8.67 -6.32 8.34 -7 8 C-6.67 6.68 -6.34 5.36 -6 4 C-4.68 3.67 -3.36 3.34 -2 3 C-2 2.34 -2 1.68 -2 1 C-1.34 0.67 -0.68 0.34 0 0 Z " fill="#3DA48A" transform="translate(159,132)"/>
<path d="M0 0 C1.32 0.66 2.64 1.32 4 2 C4.33 1.34 4.66 0.68 5 0 C5 0.66 5 1.32 5 2 C5.66 2 6.32 2 7 2 C7 2.66 7 3.32 7 4 C5.02 4.33 3.04 4.66 1 5 C0.34 3.68 -0.32 2.36 -1 1 C-0.67 0.67 -0.34 0.34 0 0 Z " fill="#2C9FB5" transform="translate(217,104)"/>
<path d="M0 0 C5.75 1.75 5.75 1.75 8 4 C7 5 7 5 4.625 5.25 C2 5 2 5 0.1875 3.5 C-0.204375 3.005 -0.59625 2.51 -1 2 C-0.67 1.34 -0.34 0.68 0 0 Z " fill="#26B87A" transform="translate(119,247)"/>
<path d="M0 0 C0.33 0 0.66 0 1 0 C1.3125 2.1875 1.3125 2.1875 1 5 C-1.17546604 7.51896068 -3.010197 9.5050985 -6 11 C-4.55007731 6.89188572 -2.54592427 3.53144334 0 0 Z " fill="#3CB172" transform="translate(101,90)"/>
<path d="M0 0 C0.66 0.33 1.32 0.66 2 1 C1.02526874 2.66926454 0.04510211 4.33535642 -0.9375 6 C-1.75541016 7.3921875 -1.75541016 7.3921875 -2.58984375 8.8125 C-3.05519531 9.534375 -3.52054688 10.25625 -4 11 C-4.33 11 -4.66 11 -5 11 C-5 9.35 -5 7.7 -5 6 C-4.01 6 -3.02 6 -2 6 C-1.7834375 5.071875 -1.7834375 5.071875 -1.5625 4.125 C-1 2 -1 2 0 0 Z " fill="#4391B2" transform="translate(241,170)"/>
<path d="M0 0 C0.66 0.99 1.32 1.98 2 3 C1.70630173 4.34262065 1.3721042 5.67696283 1 7 C1.33 7.99 1.66 8.98 2 10 C0.02 10.99 0.02 10.99 -2 12 C-1.34 8.04 -0.68 4.08 0 0 Z " fill="#3593CC" transform="translate(254,173)"/>
<path d="M0 0 C1.98 0 3.96 0 6 0 C5.67 1.32 5.34 2.64 5 4 C3.35 4.33 1.7 4.66 0 5 C0 3.35 0 1.7 0 0 Z " fill="#2CB099" transform="translate(161,148)"/>
<path d="M0 0 C1 3 1 3 0.25 5.625 C-1 8 -1 8 -4 9 C-3.46930939 5.17902761 -2.50298434 2.93828597 0 0 Z " fill="#22C35E" transform="translate(85,135)"/>
<path d="M0 0 C1.98 0 3.96 0 6 0 C2.98112756 3.48331435 0.43090471 4.79157144 -4 6 C-3.34 5.01 -2.68 4.02 -2 3 C-1.01 3 -0.02 3 1 3 C0.67 2.01 0.34 1.02 0 0 Z " fill="#4095AA" transform="translate(223,105)"/>
<path d="M0 0 C1.32 0.33 2.64 0.66 4 1 C3.34 2.32 2.68 3.64 2 5 C1.34 4.67 0.68 4.34 0 4 C0 4.66 0 5.32 0 6 C-0.66 5.67 -1.32 5.34 -2 5 C-1.34 3.35 -0.68 1.7 0 0 Z " fill="#27B385" transform="translate(141,57)"/>
<path d="M0 0 C1.4391134 0.28359887 2.87625518 0.57721399 4.3125 0.875 C5.11300781 1.03742187 5.91351563 1.19984375 6.73828125 1.3671875 C9 2 9 2 12 4 C10.3745692 3.85904936 8.74965949 3.71207913 7.125 3.5625 C6.22007812 3.48128906 5.31515625 3.40007813 4.3828125 3.31640625 C2 3 2 3 0 2 C0 1.34 0 0.68 0 0 Z " fill="#4391B0" transform="translate(230,45)"/>
<path d="M0 0 C1.32 0.33 2.64 0.66 4 1 C0.535 3.97 0.535 3.97 -3 7 C-3.33 6.01 -3.66 5.02 -4 4 C-2.68 3.67 -1.36 3.34 0 3 C0 2.01 0 1.02 0 0 Z " fill="#4394B0" transform="translate(228,186)"/>
<path d="M0 0 C0.99 0.33 1.98 0.66 3 1 C2.74438677 3.3431213 2.40729228 5.67843403 2 8 C1.01 8.495 1.01 8.495 0 9 C0 6.03 0 3.06 0 0 Z " fill="#3390CB" transform="translate(259,144)"/>
<path d="M0 0 C2.64 0 5.28 0 8 0 C3.25 3.875 3.25 3.875 1 5 C0.67 3.35 0.34 1.7 0 0 Z " fill="#3C9DA1" transform="translate(195,40)"/>
<path d="M0 0 C0 0.66 0 1.32 0 2 C-0.66 2 -1.32 2 -2 2 C-2.33 3.98 -2.66 5.96 -3 8 C-3.99 7.01 -4.98 6.02 -6 5 C-5.34 4.67 -4.68 4.34 -4 4 C-4 3.01 -4 2.02 -4 1 C-2 0 -2 0 0 0 Z " fill="#3688EE" transform="translate(302,216)"/>
<path d="M0 0 C0.66 0 1.32 0 2 0 C4.09350689 3.4019487 4.17942163 6.05272412 4 10 C0 4 0 4 0 0 Z " fill="#37B769" transform="translate(87,204)"/>
<path d="M0 0 C1.32 0.66 2.64 1.32 4 2 C3.4225 2.268125 2.845 2.53625 2.25 2.8125 C-0.0325868 4.01719859 -1.9737942 5.40798115 -4 7 C-2.92598892 4.08482708 -2.22189824 2.22189824 0 0 Z " fill="#38A384" transform="translate(152,194)"/>
<path d="M0 0 C1.32 0 2.64 0 4 0 C4 1.65 4 3.3 4 5 C3.01 5 2.02 5 1 5 C0.67 3.35 0.34 1.7 0 0 Z " fill="#3498C3" transform="translate(232,176)"/>
<path d="M0 0 C0.66 0.99 1.32 1.98 2 3 C-0.66666667 4.33333333 -3.33333333 5.66666667 -6 7 C-4.60667426 3.63279613 -3.0210714 2.0140476 0 0 Z " fill="#36B373" transform="translate(109,82)"/>
<path d="M0 0 C-1.1858237 3.37503669 -2.27573689 5.64722731 -5 8 C-4.74438677 5.6568787 -4.40729228 3.32156597 -4 1 C-2 0 -2 0 0 0 Z " fill="#4C84CA" transform="translate(299,227)"/>
<path d="M0 0 C0 0.66 0 1.32 0 2 C-3.875 3 -3.875 3 -5 3 C-5.66 2.01 -6.32 1.02 -7 0 C-4.3333581 -1.33332095 -2.83319697 -0.67102033 0 0 Z " fill="#32A0B7" transform="translate(223,212)"/>
</svg>
