<?xml version="1.0" encoding="UTF-8"?>
<svg width="512" height="512" viewBox="0 0 512 512" fill="none" xmlns="http://www.w3.org/2000/svg">
    <!-- Base curl -->
    <path d="M256 64c-53 0-96 43-96 96c0 53 43 96 96 96c53 0 96-43 96-96c0-53-43-96-96-96zM256 224c-35.3 0-64-28.7-64-64s28.7-64 64-64s64 28.7 64 64s-28.7 64-64 64z" fill="#8B4513"/>
    
    <!-- Top curve -->
    <path d="M256 96c-35.3 0-64 28.7-64 64s28.7 64 64 64s64-28.7 64-64s-28.7-64-64-64zM256 192c-17.7 0-32-14.3-32-32s14.3-32 32-32s32 14.3 32 32s-14.3 32-32 32z" fill="#CD853F"/>
    
    <!-- Lower swirl -->
    <path d="M328 280c-13.3 0-24 10.7-24 24v32c0 26.5-21.5 48-48 48s-48-21.5-48-48v-32c0-13.3-10.7-24-24-24s-24 10.7-24 24v32c0 53 43 96 96 96s96-43 96-96v-32c0-13.3-10.7-24-24-24z" fill="#8B4513"/>
    
    <!-- Tilak (dot) -->
    <path d="M256 352c-17.7 0-32 14.3-32 32s14.3 32 32 32s32-14.3 32-32s-14.3-32-32-32z" fill="#CD853F"/>
    
    <!-- Decorative curves -->
    <path d="M360 280c-8.8 0-16 7.2-16 16v40c0 48.6-39.4 88-88 88s-88-39.4-88-88v-40c0-8.8-7.2-16-16-16s-16 7.2-16 16v40c0 66.3 53.7 120 120 120s120-53.7 120-120v-40c0-8.8-7.2-16-16-16z" fill="#CD853F" fill-opacity="0.6"/>
</svg>